<svg width="33" height="32" viewBox="0 0 33 32" fill="none" xmlns="http://www.w3.org/2000/svg">
<rect x="0.5" width="32" height="32" rx="16" fill="white"/>
<path d="M23.8181 15.5161L18.3578 10.2027C18.202 10.051 17.9942 9.96777 17.7727 9.96777C17.5509 9.96777 17.3433 10.0511 17.1875 10.2027L16.6917 10.6852C16.536 10.8367 16.4502 11.0389 16.4502 11.2546C16.4502 11.4701 16.536 11.6792 16.6917 11.8306L19.8772 14.9372H9.75678C9.30048 14.9372 8.93994 15.2848 8.93994 15.7289V16.411C8.93994 16.8552 9.30048 17.2378 9.75678 17.2378H19.9133L16.6918 20.3617C16.5361 20.5133 16.4503 20.7101 16.4503 20.9258C16.4503 21.1412 16.5361 21.3408 16.6918 21.4924L17.1876 21.9733C17.3434 22.125 17.5511 22.2077 17.7728 22.2077C17.9943 22.2077 18.2021 22.1239 18.3579 21.9723L23.8183 16.659C23.9745 16.5068 24.0604 16.3037 24.0598 16.0878C24.0603 15.8712 23.9745 15.668 23.8181 15.5161Z" fill="#595760"/>
</svg>
