<svg width="29" height="33" viewBox="0 0 29 33" fill="none" xmlns="http://www.w3.org/2000/svg">
<path d="M20.5303 14.25C20.5303 13.5596 19.9706 13 19.2803 13H6.40527C5.7149 13 5.15527 13.5596 5.15527 14.25C5.15527 14.9404 5.7149 15.5 6.40527 15.5H19.2803C19.9706 15.5 20.5303 14.9404 20.5303 14.25Z" fill="#B16C83"/>
<path d="M6.40527 18C5.7149 18 5.15527 18.5596 5.15527 19.25C5.15527 19.9404 5.7149 20.5 6.40527 20.5H14.2247C14.9151 20.5 15.4747 19.9404 15.4747 19.25C15.4747 18.5596 14.9151 18 14.2247 18H6.40527Z" fill="#B16C83"/>
<path d="M9.34267 30H5.16211C3.78361 30 2.66211 28.8785 2.66211 27.5V5.5C2.66211 4.1215 3.78361 3 5.16211 3H20.5302C21.9087 3 23.0302 4.1215 23.0302 5.5V13.1875C23.0302 13.8779 23.5898 14.4375 24.2802 14.4375C24.9705 14.4375 25.5302 13.8779 25.5302 13.1875V5.5C25.5302 2.743 23.2872 0.5 20.5302 0.5H5.16211C2.40511 0.5 0.162109 2.743 0.162109 5.5V27.5C0.162109 30.257 2.40511 32.5 5.16211 32.5H9.34267C10.033 32.5 10.5927 31.9404 10.5927 31.25C10.5927 30.5596 10.033 30 9.34267 30Z" fill="#B16C83"/>
<path d="M27.7445 18.5982C26.2823 17.1361 23.9033 17.136 22.4421 18.5972L15.5795 25.4447C15.4337 25.5901 15.3262 25.7693 15.2663 25.9663L13.7718 30.8866C13.6393 31.3228 13.7547 31.7965 14.0731 32.1228C14.3116 32.3673 14.6356 32.5 14.9679 32.5C15.0791 32.5 15.1913 32.4851 15.3015 32.4545L20.3468 31.057C20.5545 30.9995 20.7437 30.8893 20.8962 30.737L27.7445 23.9016C29.2066 22.4395 29.2066 20.0605 27.7445 18.5982ZM19.3627 28.7355L16.8245 29.4386L17.5673 26.993L22.1978 22.3727L23.966 24.1408L19.3627 28.7355ZM25.9776 22.1331L25.7355 22.3748L23.9676 20.607L24.209 20.3661C24.6964 19.8787 25.4894 19.8787 25.9768 20.3661C26.4641 20.8535 26.4641 21.6465 25.9776 22.1331Z" fill="#B16C83"/>
<path d="M19.2803 8H6.40527C5.7149 8 5.15527 8.55963 5.15527 9.25C5.15527 9.94037 5.7149 10.5 6.40527 10.5H19.2803C19.9706 10.5 20.5303 9.94037 20.5303 9.25C20.5303 8.55963 19.9706 8 19.2803 8Z" fill="#B16C83"/>
</svg>
