<svg width="24" height="24" viewBox="0 0 24 24" fill="none" xmlns="http://www.w3.org/2000/svg">
<path d="M20.6543 4.61719H3.3457C2.33007 4.61719 1.5 5.44361 1.5 6.46289V17.5371C1.5 18.5568 2.33061 19.3828 3.3457 19.3828H20.6543C21.6699 19.3828 22.5 18.5564 22.5 17.5371V6.46289C22.5 5.44337 21.6695 4.61719 20.6543 4.61719ZM20.3709 5.84766C19.7741 6.44636 12.7647 13.4786 12.4768 13.7675C12.2362 14.0088 11.7639 14.0089 11.5232 13.7675L3.62912 5.84766H20.3709ZM2.73047 17.3109V6.68909L8.02415 12L2.73047 17.3109ZM3.62912 18.1523L8.89282 12.8715L10.6518 14.6362C11.3726 15.3593 12.6277 15.3591 13.3483 14.6362L15.1072 12.8715L20.3709 18.1523H3.62912ZM21.2695 17.3109L15.9758 12L21.2695 6.68909V17.3109Z" fill="white" stroke="white" stroke-width="0.75"/>
</svg>
