<svg width="40" height="40" viewBox="0 0 40 40" fill="none" xmlns="http://www.w3.org/2000/svg">
<g clip-path="url(#clip0_335_5918)">
<path d="M20 3.69756C25.2102 3.69756 25.8272 3.72041 27.8762 3.81182C29.7805 3.89561 30.8088 4.21553 31.4943 4.48213C32.4008 4.83252 33.0559 5.25908 33.7338 5.93701C34.4193 6.62256 34.8383 7.27002 35.1887 8.17647C35.4553 8.86201 35.7752 9.89795 35.859 11.7946C35.9504 13.8513 35.9732 14.4683 35.9732 19.6708C35.9732 24.881 35.9504 25.498 35.859 27.547C35.7752 29.4513 35.4553 30.4796 35.1887 31.1651C34.8383 32.0716 34.4117 32.7267 33.7338 33.4046C33.0482 34.0901 32.4008 34.5091 31.4943 34.8595C30.8088 35.1261 29.7729 35.446 27.8762 35.5298C25.8195 35.6212 25.2025 35.644 20 35.644C14.7898 35.644 14.1729 35.6212 12.1238 35.5298C10.2195 35.446 9.19121 35.1261 8.50566 34.8595C7.59922 34.5091 6.94414 34.0825 6.26621 33.4046C5.58066 32.719 5.16172 32.0716 4.81133 31.1651C4.54473 30.4796 4.2248 29.4437 4.14102 27.547C4.04961 25.4903 4.02676 24.8733 4.02676 19.6708C4.02676 14.4606 4.04961 13.8437 4.14102 11.7946C4.2248 9.89033 4.54473 8.86201 4.81133 8.17647C5.16172 7.27002 5.58828 6.61494 6.26621 5.93701C6.95176 5.25146 7.59922 4.83252 8.50566 4.48213C9.19121 4.21553 10.2271 3.89561 12.1238 3.81182C14.1729 3.72041 14.7898 3.69756 20 3.69756ZM20 0.186035C14.7061 0.186035 14.0434 0.208887 11.9639 0.300293C9.89199 0.391699 8.46758 0.726855 7.23359 1.20674C5.94629 1.70947 4.85703 2.37217 3.77539 3.46143C2.68613 4.54307 2.02344 5.63232 1.5207 6.91201C1.04082 8.15361 0.705664 9.57041 0.614258 11.6423C0.522852 13.7294 0.5 14.3921 0.5 19.686C0.5 24.98 0.522852 25.6427 0.614258 27.7222C0.705664 29.794 1.04082 31.2185 1.5207 32.4524C2.02344 33.7397 2.68613 34.829 3.77539 35.9106C4.85703 36.9923 5.94629 37.6626 7.22598 38.1577C8.46758 38.6376 9.88438 38.9728 11.9563 39.0642C14.0357 39.1556 14.6984 39.1784 19.9924 39.1784C25.2863 39.1784 25.949 39.1556 28.0285 39.0642C30.1004 38.9728 31.5248 38.6376 32.7588 38.1577C34.0385 37.6626 35.1277 36.9923 36.2094 35.9106C37.291 34.829 37.9613 33.7397 38.4564 32.4601C38.9363 31.2185 39.2715 29.8017 39.3629 27.7298C39.4543 25.6503 39.4771 24.9876 39.4771 19.6937C39.4771 14.3997 39.4543 13.737 39.3629 11.6575C39.2715 9.58564 38.9363 8.16123 38.4564 6.92725C37.9766 5.63232 37.3139 4.54307 36.2246 3.46143C35.143 2.37979 34.0537 1.70947 32.774 1.21436C31.5324 0.734473 30.1156 0.399316 28.0438 0.30791C25.9566 0.208887 25.2939 0.186035 20 0.186035Z" fill="#B16C83"/>
<path d="M20 9.66943C14.4699 9.66943 9.9834 14.156 9.9834 19.686C9.9834 25.2161 14.4699 29.7026 20 29.7026C25.5301 29.7026 30.0166 25.2161 30.0166 19.686C30.0166 14.156 25.5301 9.66943 20 9.66943ZM20 26.1835C16.4123 26.1835 13.5025 23.2737 13.5025 19.686C13.5025 16.0983 16.4123 13.1886 20 13.1886C23.5877 13.1886 26.4975 16.0983 26.4975 19.686C26.4975 23.2737 23.5877 26.1835 20 26.1835Z" fill="#B16C83"/>
<path d="M32.7512 9.27354C32.7512 10.5685 31.7 11.612 30.4127 11.612C29.1178 11.612 28.0742 10.5608 28.0742 9.27354C28.0742 7.97861 29.1254 6.93506 30.4127 6.93506C31.7 6.93506 32.7512 7.98623 32.7512 9.27354Z" fill="#B16C83"/>
</g>
<defs>
<clipPath id="clip0_335_5918">
<rect width="39" height="39" fill="white" transform="translate(0.5 0.186035)"/>
</clipPath>
</defs>
</svg>
