<svg width="15" height="16" viewBox="0 0 15 16" fill="none" xmlns="http://www.w3.org/2000/svg">
<path d="M2.27213 7.65424L6.17236 3.85896C6.28369 3.75063 6.43208 3.69116 6.5903 3.69116C6.7487 3.69116 6.897 3.75071 7.00833 3.85896L7.36244 4.20362C7.47369 4.31179 7.53498 4.45627 7.53498 4.61031C7.53498 4.76427 7.47369 4.91362 7.36244 5.02179L5.08711 7.24072H12.316C12.6419 7.24072 12.8994 7.489 12.8994 7.80624V8.29349C12.8994 8.61073 12.6419 8.88405 12.316 8.88405H5.06129L7.36236 11.1154C7.4736 11.2237 7.53489 11.3643 7.53489 11.5183C7.53489 11.6722 7.4736 11.8148 7.36236 11.923L7.00824 12.2666C6.89691 12.3749 6.74861 12.4339 6.59021 12.4339C6.43199 12.4339 6.2836 12.3741 6.17227 12.2658L2.27204 8.47061C2.16044 8.36193 2.09907 8.21686 2.09951 8.06264C2.09916 7.90791 2.16044 7.76275 2.27213 7.65424Z" fill="#B16C83"/>
</svg>
