<svg width="16" height="16" viewBox="0 0 16 16" fill="none" xmlns="http://www.w3.org/2000/svg">
<mask id="mask0_171_2801" style="mask-type:alpha" maskUnits="userSpaceOnUse" x="0" y="0" width="16" height="16">
<rect width="16" height="16" fill="#D9D9D9"/>
</mask>
<g mask="url(#mask0_171_2801)">
<path d="M3.60039 13.5999C3.27039 13.5999 2.98789 13.4824 2.75289 13.2474C2.51789 13.0124 2.40039 12.7299 2.40039 12.3999V3.5999C2.40039 3.2699 2.51789 2.9874 2.75289 2.7524C2.98789 2.5174 3.27039 2.3999 3.60039 2.3999H7.40039C7.57039 2.3999 7.71289 2.45707 7.82789 2.5714C7.94289 2.68574 8.00039 2.8274 8.00039 2.9964C8.00039 3.1654 7.94289 3.30824 7.82789 3.4249C7.71289 3.54157 7.57039 3.5999 7.40039 3.5999H3.60039V12.3999H12.4004V8.5999C12.4004 8.4299 12.4576 8.2874 12.5719 8.1724C12.6862 8.0574 12.8279 7.9999 12.9969 7.9999C13.1659 7.9999 13.3087 8.0574 13.4254 8.1724C13.5421 8.2874 13.6004 8.4299 13.6004 8.5999V12.3999C13.6004 12.7299 13.4829 13.0124 13.2479 13.2474C13.0129 13.4824 12.7304 13.5999 12.4004 13.5999H3.60039ZM12.4004 4.4499L6.86706 9.98324C6.74484 10.1055 6.60595 10.1638 6.45039 10.1582C6.29484 10.1527 6.15595 10.0888 6.03372 9.96657C5.9115 9.84435 5.85039 9.70268 5.85039 9.54157C5.85039 9.38046 5.9115 9.23879 6.03372 9.11657L11.5504 3.5999H10.2004C10.0304 3.5999 9.88789 3.54274 9.77289 3.4284C9.65789 3.31407 9.60039 3.1724 9.60039 3.0034C9.60039 2.8344 9.65789 2.69157 9.77289 2.5749C9.88789 2.45824 10.0304 2.3999 10.2004 2.3999H13.0004C13.1704 2.3999 13.3129 2.4574 13.4279 2.5724C13.5429 2.6874 13.6004 2.8299 13.6004 2.9999V5.7999C13.6004 5.9699 13.5432 6.1124 13.4289 6.2274C13.3146 6.3424 13.1729 6.3999 13.0039 6.3999C12.8349 6.3999 12.6921 6.3424 12.5754 6.2274C12.4587 6.1124 12.4004 5.9699 12.4004 5.7999V4.4499Z" fill="#595760"/>
</g>
</svg>
