<svg width="18" height="19" viewBox="0 0 18 19" fill="none" xmlns="http://www.w3.org/2000/svg">
<mask id="mask0_375_1871" style="mask-type:alpha" maskUnits="userSpaceOnUse" x="0" y="0" width="18" height="19">
<rect y="0.186035" width="18" height="18" fill="#D9D9D9"/>
</mask>
<g mask="url(#mask0_375_1871)">
<path d="M4.0502 15.486C3.67895 15.486 3.36113 15.3538 3.09676 15.0894C2.83238 14.825 2.7002 14.5072 2.7002 14.136V4.23599C2.7002 3.86474 2.83238 3.54692 3.09676 3.28255C3.36113 3.01817 3.67895 2.88599 4.0502 2.88599H8.3252C8.51645 2.88599 8.67676 2.9503 8.80613 3.07892C8.93551 3.20755 9.0002 3.36692 9.0002 3.55705C9.0002 3.74717 8.93551 3.90786 8.80613 4.03911C8.67676 4.17036 8.51645 4.23599 8.3252 4.23599H4.0502V14.136H13.9502V9.86099C13.9502 9.66974 14.0145 9.50942 14.1431 9.38005C14.2718 9.25067 14.4311 9.18599 14.6213 9.18599C14.8114 9.18599 14.9721 9.25067 15.1033 9.38005C15.2346 9.50942 15.3002 9.66974 15.3002 9.86099V14.136C15.3002 14.5072 15.168 14.825 14.9036 15.0894C14.6393 15.3538 14.3214 15.486 13.9502 15.486H4.0502ZM13.9502 5.19224L7.7252 11.4172C7.5877 11.5547 7.43145 11.6204 7.25645 11.6141C7.08145 11.6079 6.9252 11.536 6.7877 11.3985C6.6502 11.261 6.58145 11.1016 6.58145 10.9204C6.58145 10.7391 6.6502 10.5797 6.7877 10.4422L12.9939 4.23599H11.4752C11.2839 4.23599 11.1236 4.17167 10.9943 4.04305C10.8649 3.91442 10.8002 3.75505 10.8002 3.56492C10.8002 3.3748 10.8649 3.21411 10.9943 3.08286C11.1236 2.95161 11.2839 2.88599 11.4752 2.88599H14.6252C14.8164 2.88599 14.9768 2.95067 15.1061 3.08005C15.2355 3.20942 15.3002 3.36974 15.3002 3.56099V6.71099C15.3002 6.90224 15.2359 7.06255 15.1073 7.19192C14.9786 7.3213 14.8193 7.38599 14.6291 7.38599C14.439 7.38599 14.2783 7.3213 14.1471 7.19192C14.0158 7.06255 13.9502 6.90224 13.9502 6.71099V5.19224Z" fill="white"/>
</g>
</svg>
