<svg width="32" height="33" viewBox="0 0 32 33" fill="none" xmlns="http://www.w3.org/2000/svg">
<mask id="mask0_335_5923" style="mask-type:alpha" maskUnits="userSpaceOnUse" x="7" y="7" width="18" height="19">
<rect x="7" y="7.18604" width="18" height="18" fill="#D9D9D9"/>
</mask>
<g mask="url(#mask0_335_5923)">
<path d="M11.0502 22.486C10.6789 22.486 10.3611 22.3538 10.0968 22.0894C9.83238 21.825 9.7002 21.5072 9.7002 21.136V11.236C9.7002 10.8647 9.83238 10.5469 10.0968 10.2825C10.3611 10.0182 10.6789 9.88599 11.0502 9.88599H15.3252C15.5164 9.88599 15.6768 9.9503 15.8061 10.0789C15.9355 10.2075 16.0002 10.3669 16.0002 10.557C16.0002 10.7472 15.9355 10.9079 15.8061 11.0391C15.6768 11.1704 15.5164 11.236 15.3252 11.236H11.0502V21.136H20.9502V16.861C20.9502 16.6697 21.0145 16.5094 21.1431 16.38C21.2718 16.2507 21.4311 16.186 21.6213 16.186C21.8114 16.186 21.9721 16.2507 22.1033 16.38C22.2346 16.5094 22.3002 16.6697 22.3002 16.861V21.136C22.3002 21.5072 22.168 21.825 21.9036 22.0894C21.6393 22.3538 21.3214 22.486 20.9502 22.486H11.0502ZM20.9502 12.1922L14.7252 18.4172C14.5877 18.5547 14.4314 18.6204 14.2564 18.6141C14.0814 18.6079 13.9252 18.536 13.7877 18.3985C13.6502 18.261 13.5814 18.1016 13.5814 17.9204C13.5814 17.7391 13.6502 17.5797 13.7877 17.4422L19.9939 11.236H18.4752C18.2839 11.236 18.1236 11.1717 17.9943 11.043C17.8649 10.9144 17.8002 10.755 17.8002 10.5649C17.8002 10.3748 17.8649 10.2141 17.9943 10.0829C18.1236 9.95161 18.2839 9.88599 18.4752 9.88599H21.6252C21.8164 9.88599 21.9768 9.95067 22.1061 10.08C22.2355 10.2094 22.3002 10.3697 22.3002 10.561V13.711C22.3002 13.9022 22.2359 14.0625 22.1073 14.1919C21.9786 14.3213 21.8193 14.386 21.6291 14.386C21.439 14.386 21.2783 14.3213 21.1471 14.1919C21.0158 14.0625 20.9502 13.9022 20.9502 13.711V12.1922Z" fill="white"/>
</g>
</svg>
