<svg width="14" height="14" viewBox="0 0 14 14" fill="none" xmlns="http://www.w3.org/2000/svg">
<path d="M1.5 14C1.0875 14 0.734375 13.8531 0.440625 13.5594C0.146875 13.2656 0 12.9125 0 12.5V1.5C0 1.0875 0.146875 0.734376 0.440625 0.440626C0.734375 0.146876 1.0875 0 1.5 0H6.25C6.4625 0 6.64063 0.0714579 6.78438 0.214375C6.92813 0.357291 7 0.534375 7 0.745625C7 0.956875 6.92813 1.13542 6.78438 1.28125C6.64063 1.42708 6.4625 1.5 6.25 1.5H1.5V12.5H12.5V7.75C12.5 7.5375 12.5715 7.35938 12.7144 7.21563C12.8573 7.07188 13.0344 7 13.2456 7C13.4569 7 13.6354 7.07188 13.7813 7.21563C13.9271 7.35938 14 7.5375 14 7.75V12.5C14 12.9125 13.8531 13.2656 13.5594 13.5594C13.2656 13.8531 12.9125 14 12.5 14H1.5ZM12.5 2.5625L5.58333 9.47917C5.43056 9.63195 5.25695 9.70486 5.0625 9.69792C4.86806 9.69097 4.69445 9.61111 4.54167 9.45833C4.38889 9.30556 4.3125 9.12847 4.3125 8.92708C4.3125 8.7257 4.38889 8.54861 4.54167 8.39583L11.4375 1.5H9.75C9.5375 1.5 9.35938 1.42854 9.21563 1.28563C9.07188 1.14271 9 0.965626 9 0.754376C9 0.543126 9.07188 0.364583 9.21563 0.21875C9.35938 0.0729167 9.5375 0 9.75 0H13.25C13.4625 0 13.6406 0.0718745 13.7844 0.215625C13.9281 0.359375 14 0.5375 14 0.75V4.25C14 4.4625 13.9285 4.64063 13.7856 4.78438C13.6427 4.92813 13.4656 5 13.2544 5C13.0431 5 12.8646 4.92813 12.7188 4.78438C12.5729 4.64063 12.5 4.4625 12.5 4.25V2.5625Z" fill="#B77883"/>
</svg>
