<svg width="32" height="32" viewBox="0 0 32 32" fill="none" xmlns="http://www.w3.org/2000/svg">
<rect x="0.5" y="0.5" width="31" height="31" rx="15.5" fill="white"/>
<rect x="0.5" y="0.5" width="31" height="31" rx="15.5" stroke="#E3E1E3"/>
<path d="M21.2269 15.6545L17.3267 11.8592C17.2153 11.7509 17.0669 11.6914 16.9087 11.6914C16.7503 11.6914 16.602 11.751 16.4907 11.8592L16.1366 12.2039C16.0253 12.312 15.964 12.4565 15.964 12.6106C15.964 12.7645 16.0253 12.9139 16.1366 13.022L18.4119 15.241H11.1831C10.8571 15.241 10.5996 15.4892 10.5996 15.8065V16.2937C10.5996 16.611 10.8571 16.8843 11.1831 16.8843H18.4377L16.1367 19.1156C16.0254 19.2239 15.9641 19.3645 15.9641 19.5185C15.9641 19.6724 16.0254 19.815 16.1367 19.9233L16.4908 20.2668C16.6021 20.3752 16.7504 20.4342 16.9088 20.4342C17.067 20.4342 17.2154 20.3744 17.3268 20.266L21.227 16.4709C21.3386 16.3622 21.4 16.2171 21.3995 16.0629C21.3999 15.9082 21.3386 15.763 21.2269 15.6545Z" fill="#B16C83"/>
</svg>
