<svg width="14" height="13" viewBox="0 0 14 13" fill="none" xmlns="http://www.w3.org/2000/svg">
<g clip-path="url(#clip0_336_1335)">
<path d="M13.7434 5.99473L9.04863 1.29986C8.91461 1.16585 8.736 1.09229 8.54554 1.09229C8.35488 1.09229 8.17637 1.16595 8.04235 1.29986L7.6161 1.72621C7.48219 1.86002 7.40842 2.03874 7.40842 2.2293C7.40842 2.41975 7.48219 2.6045 7.6161 2.7383L10.355 5.48318H1.65348C1.26116 5.48318 0.951172 5.79032 0.951172 6.18275V6.7855C0.951172 7.17793 1.26116 7.51603 1.65348 7.51603H10.386L7.61621 10.2762C7.4823 10.4103 7.40853 10.5841 7.40853 10.7747C7.40853 10.965 7.4823 11.1414 7.61621 11.2753L8.04246 11.7003C8.17647 11.8343 8.35498 11.9074 8.54565 11.9074C8.7361 11.9074 8.91472 11.8334 9.04873 11.6994L13.7435 7.00459C13.8778 6.87016 13.9517 6.6907 13.9512 6.49992C13.9516 6.30852 13.8778 6.12895 13.7434 5.99473Z" fill="white"/>
</g>
<defs>
<clipPath id="clip0_336_1335">
<rect width="13" height="13" fill="white" transform="translate(0.951172)"/>
</clipPath>
</defs>
</svg>
