<svg width="15" height="16" viewBox="0 0 15 16" fill="none" xmlns="http://www.w3.org/2000/svg">
<path d="M12.7269 7.65424L8.82667 3.85896C8.71533 3.75063 8.56695 3.69116 8.40872 3.69116C8.25033 3.69116 8.10203 3.75071 7.99069 3.85896L7.63658 4.20362C7.52533 4.31179 7.46405 4.45627 7.46405 4.61031C7.46405 4.76427 7.52533 4.91362 7.63658 5.02179L9.91192 7.24072H2.68306C2.35714 7.24072 2.09961 7.489 2.09961 7.80624V8.29349C2.09961 8.61073 2.35714 8.88405 2.68306 8.88405H9.93773L7.63667 11.1154C7.52542 11.2237 7.46413 11.3643 7.46413 11.5183C7.46413 11.6722 7.52542 11.8148 7.63667 11.923L7.99078 12.2666C8.10211 12.3749 8.25041 12.4339 8.40881 12.4339C8.56703 12.4339 8.71542 12.3741 8.82676 12.2658L12.727 8.47061C12.8386 8.36193 12.9 8.21686 12.8995 8.06264C12.8999 7.90791 12.8386 7.76275 12.7269 7.65424Z" fill="#B16C83"/>
</svg>
