<svg width="10" height="9" viewBox="0 0 10 9" fill="none" xmlns="http://www.w3.org/2000/svg">
<g clip-path="url(#clip0_335_5899)">
<path d="M9.35615 4.15083L6.10593 0.900542C6.01315 0.807762 5.88949 0.756836 5.75764 0.756836C5.62564 0.756836 5.50206 0.807836 5.40928 0.900542L5.11418 1.19571C5.02148 1.28834 4.9704 1.41207 4.9704 1.544C4.9704 1.67585 5.02148 1.80375 5.11418 1.89639L7.01031 3.79669H0.986216C0.714608 3.79669 0.5 4.00932 0.5 4.281V4.69829C0.5 4.96997 0.714608 5.20404 0.986216 5.20404H7.03183L5.11426 7.11495C5.02155 7.20773 4.97048 7.3281 4.97048 7.46002C4.97048 7.5918 5.02155 7.71393 5.11426 7.80663L5.40935 8.10085C5.50213 8.19363 5.62571 8.24419 5.75771 8.24419C5.88957 8.24419 6.01322 8.19297 6.106 8.10019L9.35622 4.84997C9.44922 4.7569 9.50037 4.63266 9.5 4.50059C9.50029 4.36807 9.44922 4.24376 9.35615 4.15083Z" fill="#B16C83"/>
</g>
<defs>
<clipPath id="clip0_335_5899">
<rect width="9" height="9" fill="white" transform="translate(0.5 0.000488281)"/>
</clipPath>
</defs>
</svg>
