<svg width="32" height="32" viewBox="0 0 32 32" fill="none" xmlns="http://www.w3.org/2000/svg">
<rect x="0.5" y="0.5" width="31" height="31" rx="15.5" fill="white"/>
<rect x="0.5" y="0.5" width="31" height="31" rx="15.5" stroke="#E3E1E3"/>
<path d="M10.7731 15.6542L14.6733 11.859C14.7847 11.7506 14.9331 11.6912 15.0913 11.6912C15.2497 11.6912 15.398 11.7507 15.5093 11.859L15.8634 12.2036C15.9747 12.3118 16.036 12.4563 16.036 12.6103C16.036 12.7643 15.9747 12.9136 15.8634 13.0218L13.5881 15.2407H20.8169C21.1429 15.2407 21.4004 15.489 21.4004 15.8062V16.2935C21.4004 16.6107 21.1429 16.884 20.8169 16.884H13.5623L15.8633 19.1154C15.9746 19.2237 16.0359 19.3643 16.0359 19.5183C16.0359 19.6722 15.9746 19.8148 15.8633 19.923L15.5092 20.2666C15.3979 20.3749 15.2496 20.4339 15.0912 20.4339C14.933 20.4339 14.7846 20.3741 14.6732 20.2658L10.773 16.4706C10.6614 16.3619 10.6 16.2169 10.6005 16.0626C10.6001 15.9079 10.6614 15.7627 10.7731 15.6542Z" fill="#B16C83"/>
</svg>
