<svg width="64" height="64" viewBox="0 0 64 64" fill="none" xmlns="http://www.w3.org/2000/svg">
<path d="M0 0H64V64H10C4.47715 64 0 59.5228 0 54V0Z" fill="#B77883"/>
<path d="M40.6543 25.6172H23.3457C22.3301 25.6172 21.5 26.4436 21.5 27.4629V38.5371C21.5 39.5568 22.3306 40.3828 23.3457 40.3828H40.6543C41.6699 40.3828 42.5 39.5564 42.5 38.5371V27.4629C42.5 26.4434 41.6695 25.6172 40.6543 25.6172ZM40.3709 26.8477C39.7741 27.4464 32.7647 34.4786 32.4768 34.7675C32.2362 35.0088 31.7639 35.0089 31.5232 34.7675L23.6291 26.8477H40.3709ZM22.7305 38.3109V27.6891L28.0242 33L22.7305 38.3109ZM23.6291 39.1523L28.8928 33.8715L30.6518 35.6362C31.3726 36.3593 32.6277 36.3591 33.3483 35.6362L35.1072 33.8715L40.3709 39.1523H23.6291ZM41.2695 38.3109L35.9758 33L41.2695 27.6891V38.3109Z" fill="white" stroke="white" stroke-width="0.75"/>
</svg>
