<svg width="48" height="35" viewBox="0 0 48 35" fill="none" xmlns="http://www.w3.org/2000/svg">
<path d="M47.5219 7.58564C47.5219 7.58564 47.0531 4.27627 45.6094 2.82314C43.7812 0.910645 41.7375 0.901269 40.8 0.788769C34.0875 0.301269 24.0094 0.30127 24.0094 0.30127H23.9906C23.9906 0.30127 13.9125 0.301269 7.2 0.788769C6.2625 0.901269 4.21875 0.910645 2.39062 2.82314C0.946875 4.27627 0.4875 7.58564 0.4875 7.58564C0.4875 7.58564 0 11.4763 0 15.3575V18.995C0 22.8763 0.478125 26.7669 0.478125 26.7669C0.478125 26.7669 0.946875 30.0763 2.38125 31.5294C4.20937 33.4419 6.60938 33.3763 7.67813 33.5825C11.5219 33.9481 24 34.0606 24 34.0606C24 34.0606 34.0875 34.0419 40.8 33.5638C41.7375 33.4513 43.7812 33.4419 45.6094 31.5294C47.0531 30.0763 47.5219 26.7669 47.5219 26.7669C47.5219 26.7669 48 22.8856 48 18.995V15.3575C48 11.4763 47.5219 7.58564 47.5219 7.58564ZM19.0406 23.4106V9.92002L32.0062 16.6888L19.0406 23.4106Z" fill="#B16C83"/>
</svg>
