<svg width="100" height="100" viewBox="0 0 100 100" fill="none" xmlns="http://www.w3.org/2000/svg">
<g clip-path="url(#clip0_44_3362)">
<path d="M50.008 35.9155C40.4247 35.9155 32.6704 43.6698 32.6704 53.2531C32.6704 58.4393 34.9838 63.0911 38.6208 66.2688L37.1969 70.1313C37.0173 70.6157 37.1468 71.1502 37.5268 71.5051C37.7815 71.7097 38.0863 71.835 38.3911 71.835C38.5707 71.835 38.7711 71.7849 38.9507 71.7097L43.782 69.3964C45.7153 70.1355 47.799 70.5656 50.0122 70.5656C59.5704 70.5656 67.3247 62.8113 67.3247 53.2531C67.3247 43.6949 59.5704 35.9155 50.0122 35.9155H50.008ZM40.8548 55.8212C39.4309 55.8212 38.2617 54.677 38.2617 53.228C38.2617 51.7791 39.4309 50.6349 40.8548 50.6349C42.2787 50.6349 43.4479 51.8041 43.4479 53.228C43.4479 54.652 42.2787 55.8212 40.8548 55.8212ZM49.9829 55.8212C48.559 55.8212 47.4149 54.677 47.4149 53.228C47.4149 51.7791 48.559 50.6349 49.9829 50.6349C51.4068 50.6349 52.576 51.8041 52.576 53.228C52.576 54.652 51.4068 55.8212 49.9829 55.8212ZM59.1069 55.8212C57.6829 55.8212 56.5137 54.677 56.5137 53.228C56.5137 51.7791 57.6829 50.6349 59.1069 50.6349C60.5308 50.6349 61.7 51.8041 61.7 53.228C61.7 54.652 60.5558 55.8212 59.1069 55.8212Z" fill="#E59BB4"/>
<path d="M31.1508 27.8685V31.1965C31.1508 31.8062 30.6497 32.2822 30.0651 32.2822H1.08569C0.476031 32.2822 0 31.802 0 31.1965V27.8685C0 24.0853 2.7852 20.9285 6.39719 20.3647C8.91933 22.344 12.1179 23.5174 15.5754 23.5174C19.0329 23.5174 22.2106 22.344 24.7328 20.3647C28.3656 20.9285 31.1508 24.0853 31.1508 27.8685Z" fill="#BCC0B5"/>
<path d="M15.5669 16.9952C20.2521 16.9952 24.0645 13.1827 24.0645 8.49758C24.0645 3.81243 20.2521 0 15.5669 0C10.8818 0 7.06934 3.81243 7.06934 8.49758C7.06934 13.1827 10.8818 16.9952 15.5669 16.9952Z" fill="#BCC0B5"/>
<path d="M99.9997 27.8685V31.1965C99.9997 31.8062 99.4986 32.2822 98.914 32.2822H69.9387C69.3291 32.2822 68.853 31.802 68.853 31.1965V27.8685C68.853 24.0853 71.6382 20.9285 75.2502 20.3647C77.7724 22.344 80.971 23.5174 84.4284 23.5174C87.8859 23.5174 91.0636 22.344 93.5858 20.3647C97.2187 20.9285 100.004 24.0853 100.004 27.8685H99.9997Z" fill="#BCC0B5"/>
<path d="M84.416 16.9952C89.1012 16.9952 92.9136 13.1827 92.9136 8.49758C92.9136 3.81243 89.1012 0 84.416 0C79.7309 0 75.9185 3.81243 75.9185 8.49758C75.9185 13.1827 79.7309 16.9952 84.416 16.9952Z" fill="#BCC0B5"/>
<path d="M31.1508 95.5821V98.9102C31.1508 99.5198 30.6497 99.9959 30.0651 99.9959H1.08569C0.476031 99.9959 0 99.5157 0 98.9102V95.5821C0 91.7989 2.7852 88.6421 6.39719 88.0784C8.91933 90.0577 12.1179 91.231 15.5754 91.231C19.0329 91.231 22.2106 90.0577 24.7328 88.0784C28.3656 88.6421 31.1508 91.7989 31.1508 95.5821Z" fill="#BCC0B5"/>
<path d="M15.5669 84.7085C20.2521 84.7085 24.0645 80.8961 24.0645 76.211C24.0645 71.5258 20.2521 67.7134 15.5669 67.7134C10.8818 67.7134 7.06934 71.5258 7.06934 76.211C7.06934 80.8961 10.8818 84.7085 15.5669 84.7085Z" fill="#BCC0B5"/>
<path d="M99.9997 95.5821V98.9102C99.9997 99.5198 99.4986 99.9959 98.914 99.9959H69.9387C69.3291 99.9959 68.853 99.5157 68.853 98.9102V95.5821C68.853 91.7989 71.6382 88.6421 75.2502 88.0784C77.7724 90.0577 80.971 91.231 84.4284 91.231C87.8859 91.231 91.0636 90.0577 93.5858 88.0784C97.2187 88.6421 100.004 91.7989 100.004 95.5821H99.9997Z" fill="#BCC0B5"/>
<path d="M84.416 84.7085C89.1012 84.7085 92.9136 80.8961 92.9136 76.211C92.9136 71.5258 89.1012 67.7134 84.416 67.7134C79.7309 67.7134 75.9185 71.5258 75.9185 76.211C75.9185 80.8961 79.7309 84.7085 84.416 84.7085Z" fill="#BCC0B5"/>
<path d="M57.7709 22.1608H42.2205C40.5252 22.1608 39.1514 20.787 39.1514 19.0916C39.1514 17.3963 40.5252 16.0225 42.2205 16.0225H57.7709C59.4662 16.0225 60.84 17.3963 60.84 19.0916C60.84 20.787 59.4662 22.1608 57.7709 22.1608Z" fill="#BCC0B5"/>
<path d="M57.7709 90.9679H42.2205C40.5252 90.9679 39.1514 89.5941 39.1514 87.8987C39.1514 86.2034 40.5252 84.8296 42.2205 84.8296H57.7709C59.4662 84.8296 60.84 86.2034 60.84 87.8987C60.84 89.5941 59.4662 90.9679 57.7709 90.9679Z" fill="#BCC0B5"/>
<path d="M18.6359 42.2249V57.7753C18.6359 59.4706 17.262 60.8444 15.5667 60.8444C13.8714 60.8444 12.4976 59.4706 12.4976 57.7753V42.2249C12.4976 40.5296 13.8714 39.1558 15.5667 39.1558C17.262 39.1558 18.6359 40.5296 18.6359 42.2249Z" fill="#BCC0B5"/>
<path d="M87.4894 42.2249V57.7753C87.4894 59.4706 86.1156 60.8444 84.4202 60.8444C82.7249 60.8444 81.3511 59.4706 81.3511 57.7753V42.2249C81.3511 40.5296 82.7249 39.1558 84.4202 39.1558C86.1156 39.1558 87.4894 40.5296 87.4894 42.2249Z" fill="#BCC0B5"/>
</g>
<defs>
<clipPath id="clip0_44_3362">
<rect width="100" height="100" fill="white"/>
</clipPath>
</defs>
</svg>
