<svg width="100" height="100" viewBox="0 0 100 100" fill="none" xmlns="http://www.w3.org/2000/svg">
<g clip-path="url(#clip0_44_3384)">
<path d="M59.4221 16.3674C59.4221 22.1828 54.7131 26.8574 48.9321 26.8574C43.1511 26.8574 38.4727 22.179 38.4727 16.3674C38.4727 10.5557 43.1511 5.90796 48.9321 5.90796C54.7131 5.90796 59.4221 10.5864 59.4221 16.3674Z" fill="#BCC0B5"/>
<path d="M88.6639 77.2251C86.7152 77.2251 84.8315 77.7764 83.2083 78.6531L14.9387 1H2.40429C1.07198 1 0 2.07198 0 3.40429C0 4.7366 1.07198 5.80858 2.40429 5.80858H12.634L26.049 21.0727L25.7236 53.0329C25.7236 57.7113 27.477 61.9648 30.3025 65.2458L23.6447 77.6845C22.6685 77.3591 21.6003 77.2289 20.4939 77.2289C14.2917 77.2289 9.15773 82.2634 9.15773 88.5651C9.15773 94.8668 14.1577 99.9319 20.4939 99.9319C26.83 99.9319 31.83 94.8974 31.83 88.5651C31.83 85.1884 30.3024 82.1332 27.902 80.0888L34.1386 68.6263C36.964 70.3798 40.245 71.4518 43.8476 71.4518H70.2182L79.5061 81.9418C78.0781 83.7948 77.3315 86.0651 77.3315 88.5689C77.3315 94.8055 82.3316 99.9357 88.6677 99.9357C95.0038 99.9357 100.004 94.9012 100.004 88.5689C99.9081 82.3668 94.8737 77.2328 88.6677 77.2328L88.6639 77.2251ZM20.5896 95.0237C17.0176 95.0237 14.1577 92.0681 14.1577 88.5613C14.1577 85.0544 17.1133 82.1294 20.5896 82.1294C20.8155 82.1294 21.0452 82.1294 21.2711 82.2596L18.4112 87.4893C17.7603 88.6914 18.2159 90.0888 19.4181 90.7703C19.7435 90.9655 20.1646 91.0957 20.5858 91.0957C21.4625 91.0957 22.3392 90.6401 22.7948 89.7634L25.6202 84.5337C26.3668 85.6363 27.0482 87.0337 27.0482 88.5613C27.0482 92.1677 24.0926 95.0237 20.5858 95.0237H20.5896ZM88.6639 95.0237C85.0574 95.0237 82.232 92.0681 82.232 88.5613C82.232 87.4893 82.4579 86.6126 82.8829 85.7358L86.8109 90.219C87.232 90.7703 88.013 91.0957 88.6639 91.0957C89.2152 91.0957 89.7665 90.8698 90.2871 90.4449C91.294 89.5681 91.3897 88.0406 90.513 87.0337L86.5812 82.585C87.232 82.3591 88.0092 82.1294 88.66 82.1294C92.2665 82.1294 95.0919 85.085 95.0919 88.5613C95.0919 92.0375 92.1363 95.0237 88.66 95.0237H88.6639Z" fill="#E59BB4"/>
<path d="M87.2283 62.7419C86.4817 63.5191 85.3791 63.9441 84.4029 63.9441C83.4266 63.9441 82.324 63.5229 81.5774 62.7419L73.9473 55.1079L68.4228 57.3476L44.02 29.5796L68.7137 31.8843C70.4366 32.1102 71.765 33.7335 71.5392 35.4908C71.409 37.2136 70.0116 38.4119 68.3577 38.4119H68.0323L58.8745 37.4395C60.0116 40.7856 63.7444 44.9088 68.0667 48.5459L72.7451 46.5972C74.3684 45.8506 76.2214 46.0459 77.5537 47.3782L87.2321 57.0872C88.7597 58.6148 88.7597 61.2105 87.2321 62.7381L87.2283 62.7419Z" fill="#BCC0B5"/>
</g>
<defs>
<clipPath id="clip0_44_3384">
<rect width="100" height="100" fill="white"/>
</clipPath>
</defs>
</svg>
