<svg width="100" height="100" viewBox="0 0 100 100" fill="none" xmlns="http://www.w3.org/2000/svg">
<path d="M99.8482 93.4458L94.7263 72.9618C94.1548 70.683 92.1075 69.0842 89.7563 69.0842H77.6895C79.3027 72.1516 80.2323 75.6313 80.2649 79.3244H84.1823C85.1082 79.3244 85.9149 79.9538 86.1428 80.8545L89.9118 95.9344C90.5991 98.6726 93.3554 100.358 96.1261 99.6601C98.8643 98.9764 100.539 96.1948 99.8518 93.4458H99.8482Z" fill="#BCC0B5"/>
<path d="M67.1417 39.257H67.0729C66.3061 39.257 65.5537 39.427 64.8556 39.7851L54.6154 44.9034C52.8575 45.7752 51.7832 47.5331 51.7832 49.4755V66.2989C51.7832 68.9684 53.722 71.3629 56.377 71.6342C59.4263 71.9417 62.0198 69.5291 62.0198 66.5413V55.4474C62.0198 55.4474 62.0342 55.4547 62.0415 55.4547V49.291C62.0415 48.6002 62.6021 48.0395 63.293 48.0395C63.9839 48.0395 64.5445 48.6002 64.5445 49.291V56.4168C65.4452 56.793 66.3242 57.2018 67.1417 57.7009C68.6102 58.5871 69.9413 59.647 71.135 60.8406C71.5293 61.2349 71.9018 61.6436 72.2599 62.0705V44.3572C72.2599 41.2356 69.6158 39.2896 67.1417 39.2534V39.257Z" fill="#BCC0B5"/>
<path d="M28.0509 16.6389C32.6266 16.6389 36.3704 12.8952 36.3704 8.31947C36.3704 3.74376 32.6266 0 28.0509 0C23.4752 0 19.7314 3.74376 19.7314 8.31947C19.7314 12.8952 23.4752 16.6389 28.0509 16.6389Z" fill="#BCC0B5"/>
<path d="M48.2677 38.6458H38.3965L31.806 25.3492C30.3266 22.3686 27.2882 20.4805 23.9568 20.4805H21.5767C17.0878 20.4805 13.1957 23.5768 12.1865 27.9499L7.3359 48.9331C6.90184 50.8067 7.39016 52.7745 8.64893 54.2286L23.917 71.8876C24.4957 72.5567 24.814 73.4104 24.814 74.293V94.6829C24.814 97.2402 26.5611 99.6095 29.0859 100.022C32.3015 100.546 35.0831 98.0758 35.0831 94.9578L35.3834 68.2161C35.3906 67.3806 35.0904 66.5739 34.5406 65.9482L22.1301 51.9136L25.4506 37.5426C25.7472 36.2621 27.4871 36.0596 28.0658 37.2424L31.3285 43.8943C31.9796 45.2255 33.3324 46.0683 34.8155 46.0683H48.2677C50.3186 46.0683 51.9789 44.4044 51.9789 42.3571C51.9789 40.3097 50.3186 38.6458 48.2677 38.6458Z" fill="#BCC0B5"/>
<path d="M84.4824 30.7028L66.1904 23.2659L69.9233 20.9292L83.437 26.4237L84.4824 30.7028Z" fill="#E59BB4"/>
<path d="M74.0391 13.0309L86.0053 17.8948C86.4677 18.0827 86.6871 18.6092 86.5005 19.0683L84.0952 24.986L70.4569 19.4425L72.8623 13.5248C73.0502 13.0624 73.5767 12.843 74.0358 13.0296L74.0391 13.0309Z" fill="#E59BB4"/>
<path d="M67.5215 25.8555C67.0151 26.4776 66.5629 27.154 66.2483 27.9317C64.5265 32.171 66.5846 37.047 70.824 38.7723C75.0633 40.4941 79.9392 38.436 81.6646 34.2003C81.9829 33.4226 82.1276 32.6232 82.1999 31.8238L67.5251 25.8591L67.5215 25.8555Z" fill="#BCC0B5"/>
<path d="M4.48545 100.17C1.47597 100.17 -0.679858 97.2618 0.199112 94.3825L10.2801 61.3145L18.1004 70.0825L8.72114 97.1605C8.09537 98.9655 6.39531 100.174 4.48545 100.174V100.17Z" fill="#BCC0B5"/>
<path d="M95.4388 47.2222C92.3425 44.8132 87.8681 45.3703 85.4554 48.4629L74.6763 62.2949C75.6601 63.4163 76.5246 64.6244 77.2879 65.8976L88.8266 51.089C89.7851 49.8592 91.572 49.6349 92.8091 50.5934C94.0425 51.5556 94.2632 53.3425 93.301 54.5759L91.3116 57.1296L94.6864 59.7557L96.6758 57.202C99.0849 54.1093 98.5314 49.6313 95.4388 47.2186V47.2222Z" fill="#BCC0B5"/>
<path d="M64.5446 59.8677V66.932C64.5446 71.1677 61.112 74.5967 56.8799 74.5967C52.6478 74.5967 49.2151 71.164 49.2151 66.932V58.7861C44.7552 60.1715 40.9282 62.9784 38.2624 66.6715C38.3926 67.1852 38.4794 67.7097 38.4722 68.2486L38.2153 91.214C41.2682 95.4931 45.8729 98.6255 51.1648 99.6673C64.7436 102.34 76.6404 92.0206 76.6404 78.9192C76.6404 70.4913 71.6813 63.2714 64.5519 59.8677H64.5446Z" fill="#E59BB4"/>
</svg>
