<svg width="100" height="100" viewBox="0 0 100 100" fill="none" xmlns="http://www.w3.org/2000/svg">
<g clip-path="url(#clip0_44_3393)">
<path d="M17.2997 35.7525C23.1039 35.7525 27.8309 31.0297 27.8309 25.2213C27.8309 19.4129 23.1081 14.6943 17.2997 14.6943C11.4913 14.6943 6.76855 19.4171 6.76855 25.2213C6.76855 31.0256 11.4913 35.7525 17.2997 35.7525Z" fill="#BCC0B5"/>
<path d="M43.8116 30.0484C41.7864 28.4658 38.8383 28.8541 37.0219 30.6706L25.7182 39.8571C24.7495 40.6463 23.5385 41.0764 22.2858 41.0764H6.35126C2.84366 41.0764 0 43.9201 0 47.4277V70.4735C0 73.0081 2.05445 75.0626 4.58911 75.0626H6.76883V95.0141C6.76883 97.7659 9.00284 99.9999 11.7546 99.9999H22.8412C25.5971 99.9999 27.827 97.7659 27.827 95.0141V54.0754C27.8311 52.4845 28.5285 50.9729 29.7394 49.9415L44.2793 37.5187C45.223 36.575 45.7408 35.3223 45.7408 33.9944C45.7408 32.4578 45.0476 31.0213 43.8116 30.0567V30.0484Z" fill="#BCC0B5"/>
<path d="M82.6996 35.7525C76.8954 35.7525 72.1685 31.0297 72.1685 25.2213C72.1685 19.4129 76.8912 14.6943 82.6996 14.6943C88.508 14.6943 93.2308 19.4171 93.2308 25.2213C93.2308 31.0256 88.508 35.7525 82.6996 35.7525Z" fill="#BCC0B5"/>
<path d="M56.188 30.0484C58.2132 28.4658 61.1612 28.8541 62.9777 30.6706L74.2813 39.8571C75.2501 40.6463 76.4611 41.0764 77.7138 41.0764H93.6483C97.1559 41.0764 99.9996 43.9201 99.9996 47.4277V70.4735C99.9996 73.0081 97.9451 75.0626 95.4104 75.0626H93.2307V95.0141C93.2307 97.7659 90.9967 99.9999 88.2449 99.9999H77.1584C74.4024 99.9999 72.1726 97.7659 72.1726 95.0141V54.0754C72.1684 52.4845 71.4711 50.9729 70.2601 49.9415L55.7203 37.5187C54.7766 36.575 54.2588 35.3223 54.2588 33.9944C54.2588 32.4578 54.952 31.0213 56.188 30.0567V30.0484Z" fill="#BCC0B5"/>
<path d="M49.9998 16.707C48.3045 16.707 46.9307 15.3332 46.9307 13.6379V3.06915C46.9307 1.37799 48.3045 0 49.9998 0C51.6952 0 53.069 1.37381 53.069 3.06915V13.6421C53.069 15.3332 51.6952 16.7112 49.9998 16.7112V16.707Z" fill="#E59BB4"/>
<path d="M40.7256 20.5195C39.5272 21.718 37.5855 21.718 36.387 20.5195L28.9125 13.045C27.7141 11.8466 27.7141 9.90487 28.9125 8.70644C30.1109 7.50801 32.0526 7.50801 33.2511 8.70644L40.7256 16.181C41.924 17.3794 41.924 19.3211 40.7256 20.5195Z" fill="#E59BB4"/>
<path d="M59.2738 20.5195C60.4723 21.718 62.414 21.718 63.6124 20.5195L71.0869 13.045C72.2854 11.8466 72.2854 9.90487 71.0869 8.70644C69.8885 7.50801 67.9468 7.50801 66.7484 8.70644L59.2738 16.181C58.0754 17.3794 58.0754 19.3211 59.2738 20.5195Z" fill="#E59BB4"/>
</g>
<defs>
<clipPath id="clip0_44_3393">
<rect width="100" height="100" fill="white"/>
</clipPath>
</defs>
</svg>
