<svg width="20" height="20" viewBox="0 0 20 20" fill="none" xmlns="http://www.w3.org/2000/svg">
<rect width="20" height="20" rx="10" fill="#B16C83"/>
<g clip-path="url(#clip0_115_17191)">
<path d="M10.4401 13.7226L15.4618 8.70077C15.5781 8.58462 15.6421 8.42957 15.6421 8.26425C15.6421 8.09893 15.5781 7.94388 15.4618 7.82773L15.0921 7.45791C14.8512 7.21726 14.4596 7.21726 14.219 7.45791L10.0021 11.6749L5.78047 7.45323C5.66423 7.33708 5.50927 7.27295 5.34404 7.27295C5.17863 7.27295 5.02367 7.33708 4.90734 7.45323L4.5377 7.82305C4.42146 7.93929 4.35742 8.09425 4.35742 8.25957C4.35742 8.42489 4.42146 8.57994 4.5377 8.69609L9.56402 13.7226C9.68063 13.839 9.83632 13.903 10.0018 13.9026C10.168 13.903 10.3236 13.839 10.4401 13.7226Z" fill="white"/>
</g>
<defs>
<clipPath id="clip0_115_17191">
<rect width="11.2847" height="11.2847" fill="white" transform="translate(4.35742 4.35742)"/>
</clipPath>
</defs>
</svg>
