<svg width="24" height="25" viewBox="0 0 24 25" fill="none" xmlns="http://www.w3.org/2000/svg">
<g clip-path="url(#clip0_115_17749)">
<path d="M12 22.9386C17.7159 22.9386 22.3496 18.3049 22.3496 12.5889C22.3496 6.87295 17.7159 2.23926 12 2.23926C6.28403 2.23926 1.65033 6.87295 1.65033 12.5889C1.65033 18.3049 6.28403 22.9386 12 22.9386Z" fill="#FCFCFC"/>
<path d="M11.9928 13.1007C11.7103 13.1007 11.4816 12.8719 11.4809 12.5895C11.4809 12.307 11.709 12.0769 11.9921 12.0769L15.8007 12.0703H15.8014C16.0838 12.0703 16.3126 12.2991 16.3133 12.5815C16.3133 12.864 16.0852 13.0941 15.8027 13.0941L11.9941 13.1007H11.9934H11.9928Z" fill="#B16C83"/>
<path d="M20.8134 7.16174C20.9407 7.86458 21.0077 8.58931 21.0077 9.32928C21.0077 12.0133 20.1477 14.4401 18.6664 16.4445C17.8781 17.5107 16.8894 18.5345 15.7994 19.2917C13.848 20.6463 11.4908 21.4016 8.93542 21.4016C7.93685 21.4016 6.96746 21.2795 6.03918 21.0508C7.72401 22.2397 9.78015 22.9385 11.9994 22.9385C17.7156 22.9385 22.3491 18.3044 22.3491 12.5889C22.3491 10.5984 21.7868 8.73982 20.8128 7.16174H20.8134Z" fill="#DFDFDF"/>
<path d="M12.0067 23.8595C11.7369 23.8595 11.5181 23.6407 11.5181 23.3708V19.9853C11.5181 19.7154 11.7369 19.4966 12.0067 19.4966C12.2766 19.4966 12.4954 19.7154 12.4954 19.9853V23.3708C12.4954 23.6407 12.2766 23.8595 12.0067 23.8595Z" fill="#DFDFDF"/>
<path d="M22.3497 13.0716H19.3958C19.1259 13.0716 18.9071 12.8528 18.9071 12.5829C18.9071 12.313 19.1259 12.0942 19.3958 12.0942H22.3497C22.6196 12.0942 22.8384 12.313 22.8384 12.5829C22.8384 12.8528 22.6196 13.0716 22.3497 13.0716Z" fill="#DFDFDF"/>
<path d="M11.518 22.9273C11.6778 22.9345 11.8389 22.9385 12 22.9385C12.1612 22.9385 12.3316 22.9339 12.4953 22.9266V20.8678C12.1751 20.9666 11.8489 21.0515 11.5173 21.1237V22.9273H11.518Z" fill="#C2C2C2"/>
<path d="M20.4155 13.0716H22.3377C22.345 12.9118 22.3489 12.7507 22.3489 12.5895C22.3489 12.4284 22.3436 12.2587 22.3357 12.0942H20.6886C20.6111 12.4258 20.5196 12.752 20.4148 13.0722L20.4155 13.0716Z" fill="#C2C2C2"/>
<path d="M11.9934 5.6818C11.7235 5.6818 11.5047 5.46299 11.5047 5.19313V2.33535C11.5047 2.06549 11.7235 1.84668 11.9934 1.84668C12.2632 1.84668 12.482 2.06549 12.482 2.33535V5.19313C12.482 5.46299 12.2632 5.6818 11.9934 5.6818Z" fill="#DFDFDF"/>
<path d="M4.60423 13.0842H1.62246C1.3526 13.0842 1.13379 12.8653 1.13379 12.5955C1.13379 12.3256 1.3526 12.1068 1.62246 12.1068H4.60423C4.87409 12.1068 5.0929 12.3256 5.0929 12.5955C5.0929 12.8653 4.87409 13.0842 4.60423 13.0842Z" fill="#DFDFDF"/>
<path d="M16.0997 5.98825C16.0168 5.98825 15.9326 5.96703 15.8557 5.92261C15.6216 5.78735 15.542 5.48831 15.6766 5.25491L16.6825 3.51306C16.8178 3.279 17.1161 3.19877 17.3502 3.33404C17.5843 3.4693 17.6638 3.76834 17.5292 4.00173L16.5234 5.74358C16.4332 5.90007 16.2687 5.98825 16.0997 5.98825Z" fill="#DFDFDF"/>
<path d="M7.91017 5.98219C7.74109 5.98219 7.57665 5.89467 7.48647 5.73753L6.54162 4.10044C6.40635 3.86638 6.48658 3.56734 6.72064 3.43274C6.9547 3.29814 7.25374 3.37771 7.38834 3.61177L8.3332 5.24885C8.46846 5.48291 8.38823 5.78195 8.15417 5.91655C8.07726 5.96098 7.99305 5.98219 7.91017 5.98219Z" fill="#DFDFDF"/>
<path d="M4.90917 8.97785C4.82629 8.97785 4.74208 8.95663 4.66516 8.91221L2.90674 7.89707C2.67268 7.7618 2.59245 7.46277 2.72771 7.22937C2.86298 6.99531 3.16135 6.91508 3.39541 7.05034L5.15384 8.06548C5.3879 8.20075 5.46813 8.49979 5.33286 8.73318C5.24202 8.88966 5.07759 8.97785 4.90917 8.97785Z" fill="#DFDFDF"/>
<path d="M3.44053 18.0366C3.27145 18.0366 3.10701 17.9491 3.01684 17.792C2.88157 17.5579 2.9618 17.2589 3.19586 17.1243L4.65989 16.2557C4.89329 16.1204 5.19299 16.2006 5.32759 16.4347C5.46285 16.6688 5.38262 16.9678 5.14856 17.1024L3.68453 17.971C3.60762 18.0154 3.52341 18.0366 3.44053 18.0366Z" fill="#DFDFDF"/>
<path d="M6.70471 21.7198C6.62183 21.7198 6.78163 21.7643 6.70471 21.7198C6.47065 21.5846 6.39042 21.2855 6.52569 21.0521L7.47651 19.4349C7.61177 19.2009 7.91015 19.1206 8.14421 19.2559C8.37827 19.3912 8.4585 19.6902 8.32323 19.9236L7.37241 21.5408C7.28157 21.6973 6.87379 21.7198 6.70471 21.7198Z" fill="#DFDFDF"/>
<path d="M17.2415 22.1667C17.0724 22.1667 16.908 22.0792 16.8178 21.9221L15.6674 19.9296C15.5321 19.6955 15.6124 19.3965 15.8464 19.2619C16.0805 19.1266 16.3795 19.2069 16.5141 19.4409L17.6645 21.4334C17.7998 21.6675 17.7196 21.9665 17.4855 22.1011C17.4086 22.1455 17.3244 22.1667 17.2415 22.1667Z" fill="#C2C2C2"/>
<path d="M21.117 18.3488C21.0342 18.3488 20.9499 18.3276 20.873 18.2832L18.8454 17.1129C18.6113 16.9776 18.5318 16.6786 18.6664 16.4452C18.8016 16.2111 19.1 16.1309 19.3341 16.2662L21.3617 17.4365C21.5958 17.5717 21.6753 17.8708 21.5407 18.1042C21.4499 18.2606 21.2855 18.3488 21.117 18.3488Z" fill="#C2C2C2"/>
<path d="M19.096 8.9878C18.927 8.9878 18.7625 8.90027 18.6724 8.74313C18.5371 8.50907 18.6173 8.21003 18.8514 8.07543L20.7278 6.992C20.9619 6.85673 21.2609 6.93696 21.3955 7.17102C21.5301 7.40508 21.4506 7.70412 21.2165 7.83872L19.3401 8.92215C19.2631 8.96658 19.1789 8.9878 19.096 8.9878Z" fill="#DFDFDF"/>
<path d="M12 13.0781C11.7301 13.0781 11.5113 12.8593 11.5113 12.5895V7.24722C11.5113 6.97735 11.7301 6.75854 12 6.75854C12.2698 6.75854 12.4886 6.97735 12.4886 7.24722V12.5895C12.4886 12.8593 12.2698 13.0781 12 13.0781Z" fill="#B16C83"/>
<path d="M10.786 11.1228C11.3178 10.6766 12.022 10.5718 12.6333 10.7847C12.9456 10.8934 13.0888 11.2555 13.3169 11.5273C13.9913 12.3309 13.9024 13.0848 13.0988 13.7592C12.2952 14.4335 11.4988 14.5111 10.8245 13.7081C10.672 13.5264 10.2868 13.4157 10.2132 13.2042C9.96054 12.4808 10.1641 11.6447 10.786 11.1228Z" fill="#7A727A"/>
<path d="M13.4614 11.3569C13.2333 11.085 12.9449 10.8934 12.6326 10.7847C12.8852 11.5081 12.6823 12.3442 12.0603 12.866C11.5286 13.3122 10.8237 13.417 10.2131 13.2042C10.2867 13.4157 10.3994 13.6172 10.5519 13.7989C11.2262 14.6025 12.4244 14.7073 13.228 14.033C14.0316 13.3587 14.1364 12.1605 13.4621 11.3569H13.4614Z" fill="#666166"/>
<path d="M12 0.588867C5.37275 0.588867 0 5.96162 0 12.5889C0 14.2512 0.28843 15.7258 0.899768 17.1653C0.972704 17.337 1.09935 17.6162 1.18024 17.7839C3.11703 21.81 7.23395 24.0365 12.0007 24.0365C16.7674 24.0365 20.6582 21.4931 22.5187 17.2747C22.5824 17.1301 22.9868 16.8119 23.0452 16.6647C23.5823 15.3028 23.1042 14.1424 23.1042 12.5895C23.1042 8.67219 22.1235 5.19313 19.22 3.00306C17.2103 1.48731 14.7099 0.588867 12 0.588867ZM12 22.9385C10.3762 22.9385 8.84584 21.8889 7.50182 21.1834C4.41065 19.5622 2.30147 16.3219 2.30147 12.5889C2.30147 7.23203 6.64383 2.88967 12.0007 2.88967C16.0798 2.88967 19.5701 5.4073 21.0036 8.97388C21.4525 10.0911 22.2018 11.3112 22.2018 12.5889C22.2018 17.9457 17.3575 22.9385 12.0007 22.9385H12Z" fill="#B16C83"/>
<path d="M24 12.5889C24 8.67158 22.1222 5.19252 19.2187 3.00244C20.2949 4.74827 20.94 6.78783 21.003 8.97393C21.4519 10.0912 21.6992 11.3112 21.6992 12.5889C21.6992 17.9457 17.3568 22.2881 12 22.2881C10.5101 22.2881 9.09848 21.9519 7.83668 21.3512C5.66915 21.1556 3.66738 20.3878 1.98322 19.1989C4.13086 22.4466 7.8148 24.5889 12 24.5889C16.9066 24.5889 21.1257 21.6443 22.9855 17.4252C23.0492 17.2807 23.1666 17.0142 23.2249 16.8663C23.762 15.5044 24.0007 14.1411 24.0007 12.5883L24 12.5889Z" fill="#B77883"/>
</g>
<defs>
<clipPath id="clip0_115_17749">
<rect width="24" height="24" fill="white" transform="translate(0 0.588867)"/>
</clipPath>
</defs>
</svg>
